<svg xmlns="http://www.w3.org/2000/svg" width="1290" height="520" viewBox="0 0 1290 520"><g id="Capa_2" data-name="Capa 2"><text transform="translate(356.24 306.74)" style="font-size:107.21697235107422px;font-family:HelveticaNeue-Bold, Helvetica Neue;font-weight:700">HealthStack<tspan x="623.46" y="0"> </tspan><tspan x="653.26" y="0" style="fill:#c4a561">P</tspan><tspan x="724.77" y="0" style="fill:#c4a561;letter-spacing:-0.017988858435440385em">r</tspan><tspan x="764.55" y="0" style="fill:#c4a561">o</tspan></text><path d="M212.05,337.74h-6.8c-12,0-12-11-7.24-22.77l21.58-53.14h-44l-24.75,60.95c-3.54,8.72-12.45,15-21.36,15h0c-12,0-18.8-11-14-22.78l56.22-138.32c3.55-8.71,12.45-14.95,21.36-14.95h0c12,0,18.8,11.05,14,22.78l-18.19,44.72h44l21.38-52.56c3.55-8.71,11.48-14.94,20.39-14.94h0c12,0,19.77,11.05,15,22.78L233.41,322.79C229.87,331.51,221,337.74,212.05,337.74Z" style="stroke:#000;stroke-miterlimit:10;stroke-width:8px"/><polygon points="299.89 196.39 248.1 327.01 266.95 316.62 304.76 221.27 299.89 196.39" style="fill:#c4a561"/><polygon points="312.13 258.25 295.18 300.98 276.31 311.41 307.12 233.7 312.13 258.25" style="fill:#c4a561"/><polygon points="105.93 303.26 157.72 172.63 138.87 183.03 101.06 278.37 105.93 303.26" style="fill:#c4a561"/><polygon points="93.69 241.39 110.64 198.67 129.51 188.23 98.7 265.94 93.69 241.39" style="fill:#c4a561"/></g></svg>